# This file uses centimeters as units for non-parametric coordinates.

mtllib cylander.mtl
g default
v 163.508928 3.718405 -0.179934
v 163.470583 3.718405 -0.356205
v 163.407542 3.718405 -0.525226
v 163.321088 3.718405 -0.683554
v 163.212982 3.718405 -0.827967
v 163.085424 3.718405 -0.955525
v 162.941011 3.718405 -1.063631
v 162.782683 3.718405 -1.150085
v 162.613663 3.718405 -1.213126
v 162.437391 3.718405 -1.251472
v 162.257457 3.718405 -1.264341
v 162.077522 3.718405 -1.251472
v 161.901251 3.718405 -1.213127
v 161.732230 3.718405 -1.150086
v 161.573902 3.718405 -1.063632
v 161.429489 3.718405 -0.955526
v 161.301931 3.718405 -0.827968
v 161.193825 3.718405 -0.683555
v 161.107371 3.718405 -0.525227
v 161.044330 3.718405 -0.356207
v 161.005984 3.718405 -0.179935
v 160.993115 3.718405 -0.000000
v 161.005984 3.718405 0.179934
v 161.044329 3.718405 0.356206
v 161.107371 3.718405 0.525226
v 161.193824 3.718405 0.683554
v 161.301931 3.718405 0.827967
v 161.429489 3.718405 0.955525
v 161.573902 3.718405 1.063632
v 161.732230 3.718405 1.150085
v 161.901250 3.718405 1.213127
v 162.077522 3.718405 1.251472
v 162.257456 3.718405 1.264342
v 162.437391 3.718405 1.251472
v 162.613662 3.718405 1.213127
v 162.782683 3.718405 1.150086
v 162.941011 3.718405 1.063632
v 163.085424 3.718405 0.955526
v 163.212982 3.718405 0.827968
v 163.321088 3.718405 0.683555
v 163.407542 3.718405 0.525227
v 163.470583 3.718405 0.356206
v 163.508929 3.718405 0.179935
v 163.521798 3.718405 0.000000
v 163.508928 11.642306 -0.179934
v 163.470583 11.642306 -0.356205
v 163.407542 11.642306 -0.525226
v 163.321088 11.642306 -0.683554
v 163.212982 11.642306 -0.827967
v 163.085424 11.642306 -0.955525
v 162.941011 11.642306 -1.063631
v 162.782683 11.642306 -1.150085
v 162.613663 11.642306 -1.213126
v 162.437391 11.642306 -1.251472
v 162.257457 11.642306 -1.264341
v 162.077522 11.642306 -1.251472
v 161.901251 11.642306 -1.213127
v 161.732230 11.642306 -1.150086
v 161.573902 11.642306 -1.063632
v 161.429489 11.642306 -0.955526
v 161.301931 11.642306 -0.827968
v 161.193825 11.642306 -0.683555
v 161.107371 11.642306 -0.525227
v 161.044330 11.642306 -0.356207
v 161.005984 11.642306 -0.179935
v 160.993115 11.642306 -0.000000
v 161.005984 11.642306 0.179934
v 161.044329 11.642306 0.356206
v 161.107371 11.642306 0.525226
v 161.193824 11.642306 0.683554
v 161.301931 11.642306 0.827967
v 161.429489 11.642306 0.955525
v 161.573902 11.642306 1.063632
v 161.732230 11.642306 1.150085
v 161.901250 11.642306 1.213127
v 162.077522 11.642306 1.251472
v 162.257456 11.642306 1.264342
v 162.437391 11.642306 1.251472
v 162.613662 11.642306 1.213127
v 162.782683 11.642306 1.150086
v 162.941011 11.642306 1.063632
v 163.085424 11.642306 0.955526
v 163.212982 11.642306 0.827968
v 163.321088 11.642306 0.683555
v 163.407542 11.642306 0.525227
v 163.470583 11.642306 0.356206
v 163.508929 11.642306 0.179935
v 163.521798 11.642306 0.000000
v 162.257456 3.718405 0.000000
v 162.257456 11.642306 0.000000
vt 0.654660 0.134013
vt 0.649921 0.112229
vt 0.642130 0.091341
vt 0.631446 0.071775
vt 0.618086 0.053928
vt 0.602322 0.038164
vt 0.584475 0.024804
vt 0.564909 0.014120
vt 0.544021 0.006329
vt 0.522237 0.001590
vt 0.500000 0.000000
vt 0.477763 0.001590
vt 0.455979 0.006329
vt 0.435091 0.014120
vt 0.415525 0.024804
vt 0.397678 0.038164
vt 0.381914 0.053928
vt 0.368554 0.071775
vt 0.357870 0.091341
vt 0.350079 0.112229
vt 0.345340 0.134013
vt 0.343750 0.156250
vt 0.345340 0.178487
vt 0.350079 0.200271
vt 0.357870 0.221159
vt 0.368554 0.240725
vt 0.381914 0.258572
vt 0.397678 0.274336
vt 0.415525 0.287696
vt 0.435091 0.298380
vt 0.455979 0.306171
vt 0.477763 0.310910
vt 0.500000 0.312500
vt 0.522237 0.310910
vt 0.544021 0.306171
vt 0.564909 0.298380
vt 0.584475 0.287696
vt 0.602322 0.274336
vt 0.618086 0.258572
vt 0.631446 0.240725
vt 0.642130 0.221159
vt 0.649921 0.200271
vt 0.654660 0.178487
vt 0.656250 0.156250
vt 0.375000 0.312500
vt 0.380682 0.312500
vt 0.386364 0.312500
vt 0.392045 0.312500
vt 0.397727 0.312500
vt 0.403409 0.312500
vt 0.409091 0.312500
vt 0.414773 0.312500
vt 0.420455 0.312500
vt 0.426136 0.312500
vt 0.431818 0.312500
vt 0.437500 0.312500
vt 0.443182 0.312500
vt 0.448864 0.312500
vt 0.454545 0.312500
vt 0.460227 0.312500
vt 0.465909 0.312500
vt 0.471591 0.312500
vt 0.477273 0.312500
vt 0.482954 0.312500
vt 0.488636 0.312500
vt 0.494318 0.312500
vt 0.500000 0.312500
vt 0.505682 0.312500
vt 0.511364 0.312500
vt 0.517045 0.312500
vt 0.522727 0.312500
vt 0.528409 0.312500
vt 0.534091 0.312500
vt 0.539773 0.312500
vt 0.545454 0.312500
vt 0.551136 0.312500
vt 0.556818 0.312500
vt 0.562500 0.312500
vt 0.568182 0.312500
vt 0.573863 0.312500
vt 0.579545 0.312500
vt 0.585227 0.312500
vt 0.590909 0.312500
vt 0.596591 0.312500
vt 0.602273 0.312500
vt 0.607954 0.312500
vt 0.613636 0.312500
vt 0.619318 0.312500
vt 0.625000 0.312500
vt 0.375000 0.688440
vt 0.380682 0.688440
vt 0.386364 0.688440
vt 0.392045 0.688440
vt 0.397727 0.688440
vt 0.403409 0.688440
vt 0.409091 0.688440
vt 0.414773 0.688440
vt 0.420455 0.688440
vt 0.426136 0.688440
vt 0.431818 0.688440
vt 0.437500 0.688440
vt 0.443182 0.688440
vt 0.448864 0.688440
vt 0.454545 0.688440
vt 0.460227 0.688440
vt 0.465909 0.688440
vt 0.471591 0.688440
vt 0.477273 0.688440
vt 0.482954 0.688440
vt 0.488636 0.688440
vt 0.494318 0.688440
vt 0.500000 0.688440
vt 0.505682 0.688440
vt 0.511364 0.688440
vt 0.517045 0.688440
vt 0.522727 0.688440
vt 0.528409 0.688440
vt 0.534091 0.688440
vt 0.539773 0.688440
vt 0.545454 0.688440
vt 0.551136 0.688440
vt 0.556818 0.688440
vt 0.562500 0.688440
vt 0.568182 0.688440
vt 0.573863 0.688440
vt 0.579545 0.688440
vt 0.585227 0.688440
vt 0.590909 0.688440
vt 0.596591 0.688440
vt 0.602273 0.688440
vt 0.607954 0.688440
vt 0.613636 0.688440
vt 0.619318 0.688440
vt 0.625000 0.688440
vt 0.654660 0.821513
vt 0.649921 0.799729
vt 0.642130 0.778841
vt 0.631446 0.759275
vt 0.618086 0.741428
vt 0.602322 0.725664
vt 0.584475 0.712304
vt 0.564909 0.701620
vt 0.544021 0.693829
vt 0.522237 0.689090
vt 0.500000 0.687500
vt 0.477763 0.689090
vt 0.455979 0.693829
vt 0.435091 0.701620
vt 0.415525 0.712304
vt 0.397678 0.725664
vt 0.381914 0.741428
vt 0.368554 0.759275
vt 0.357870 0.778841
vt 0.350079 0.799729
vt 0.345340 0.821513
vt 0.343750 0.843750
vt 0.345340 0.865987
vt 0.350079 0.887771
vt 0.357870 0.908659
vt 0.368554 0.928225
vt 0.381914 0.946072
vt 0.397678 0.961836
vt 0.415525 0.975196
vt 0.435091 0.985880
vt 0.455979 0.993671
vt 0.477763 0.998410
vt 0.500000 1.000000
vt 0.522237 0.998410
vt 0.544021 0.993671
vt 0.564909 0.985880
vt 0.584475 0.975196
vt 0.602322 0.961836
vt 0.618086 0.946072
vt 0.631446 0.928225
vt 0.642130 0.908659
vt 0.649921 0.887771
vt 0.654660 0.865987
vt 0.656250 0.843750
vt 0.500000 0.150000
vt 0.500000 0.837500
vn 0.989821 0.000000 -0.142316
vn 0.959493 0.000000 -0.281732
vn 0.959493 0.000000 -0.281732
vn 0.989821 0.000000 -0.142316
vn 0.909632 0.000000 -0.415415
vn 0.909632 0.000000 -0.415415
vn 0.841254 0.000000 -0.540640
vn 0.841254 0.000000 -0.540640
vn 0.755750 0.000000 -0.654860
vn 0.755750 0.000000 -0.654860
vn 0.654861 0.000000 -0.755749
vn 0.654861 0.000000 -0.755749
vn 0.540641 0.000000 -0.841253
vn 0.540641 0.000000 -0.841253
vn 0.415416 0.000000 -0.909632
vn 0.415416 0.000000 -0.909632
vn 0.281733 0.000000 -0.959493
vn 0.281733 0.000000 -0.959493
vn 0.142315 0.000000 -0.989821
vn 0.142315 0.000000 -0.989821
vn 0.000001 0.000000 -1.000000
vn 0.000001 0.000000 -1.000000
vn -0.142314 0.000000 -0.989821
vn -0.142314 0.000000 -0.989821
vn -0.281732 0.000000 -0.959493
vn -0.281732 0.000000 -0.959493
vn -0.415415 0.000000 -0.909632
vn -0.415415 0.000000 -0.909632
vn -0.540640 0.000000 -0.841254
vn -0.540640 0.000000 -0.841254
vn -0.654860 0.000000 -0.755750
vn -0.654860 0.000000 -0.755750
vn -0.755749 0.000000 -0.654861
vn -0.755749 0.000000 -0.654861
vn -0.841253 0.000000 -0.540641
vn -0.841253 0.000000 -0.540641
vn -0.909632 0.000000 -0.415416
vn -0.909632 0.000000 -0.415416
vn -0.959493 0.000000 -0.281733
vn -0.959493 0.000000 -0.281733
vn -0.989821 0.000000 -0.142315
vn -0.989821 0.000000 -0.142315
vn -1.000000 0.000000 -0.000000
vn -1.000000 0.000000 -0.000000
vn -0.989821 0.000000 0.142314
vn -0.989821 0.000000 0.142314
vn -0.959493 0.000000 0.281732
vn -0.959493 0.000000 0.281732
vn -0.909632 0.000000 0.415415
vn -0.909632 0.000000 0.415415
vn -0.841254 0.000000 0.540641
vn -0.841254 0.000000 0.540641
vn -0.755750 0.000000 0.654861
vn -0.755750 0.000000 0.654861
vn -0.654861 0.000000 0.755749
vn -0.654861 0.000000 0.755749
vn -0.540641 0.000000 0.841253
vn -0.540641 0.000000 0.841253
vn -0.415415 0.000000 0.909632
vn -0.415415 0.000000 0.909632
vn -0.281733 0.000000 0.959493
vn -0.281733 0.000000 0.959493
vn -0.142315 0.000000 0.989821
vn -0.142315 0.000000 0.989821
vn -0.000000 0.000000 1.000000
vn -0.000000 0.000000 1.000000
vn 0.142315 0.000000 0.989821
vn 0.142315 0.000000 0.989821
vn 0.281732 0.000000 0.959493
vn 0.281732 0.000000 0.959493
vn 0.415415 0.000000 0.909632
vn 0.415415 0.000000 0.909632
vn 0.540641 0.000000 0.841254
vn 0.540641 0.000000 0.841254
vn 0.654861 0.000000 0.755750
vn 0.654861 0.000000 0.755750
vn 0.755750 0.000000 0.654861
vn 0.755750 0.000000 0.654861
vn 0.841253 0.000000 0.540641
vn 0.841253 0.000000 0.540641
vn 0.909632 0.000000 0.415415
vn 0.909632 0.000000 0.415415
vn 0.959493 0.000000 0.281733
vn 0.959493 0.000000 0.281733
vn 0.989821 0.000000 0.142315
vn 0.989821 0.000000 0.142315
vn 1.000000 0.000000 -0.000001
vn 1.000000 0.000000 -0.000001
vn 0.000000 -1.000000 0.000000
vn 0.000000 -1.000000 0.000000
vn 0.000000 -1.000000 0.000000
vn 0.000000 -1.000000 0.000000
vn 0.000000 -1.000000 0.000000
vn 0.000000 -1.000000 0.000000
vn 0.000000 -1.000000 0.000000
vn 0.000000 -1.000000 0.000000
vn 0.000000 -1.000000 0.000000
vn 0.000000 -1.000000 0.000000
vn 0.000000 -1.000000 0.000000
vn 0.000000 -1.000000 0.000000
vn 0.000000 -1.000000 0.000000
vn 0.000000 -1.000000 0.000000
vn 0.000000 -1.000000 0.000000
vn 0.000000 -1.000000 0.000000
vn 0.000000 -1.000000 0.000000
vn 0.000000 -1.000000 0.000000
vn 0.000000 -1.000000 0.000000
vn 0.000000 -1.000000 0.000000
vn 0.000000 -1.000000 0.000000
vn 0.000000 -1.000000 0.000000
vn 0.000000 -1.000000 0.000000
vn 0.000000 -1.000000 0.000000
vn 0.000000 -1.000000 0.000000
vn 0.000000 -1.000000 0.000000
vn 0.000000 -1.000000 0.000000
vn 0.000000 -1.000000 0.000000
vn 0.000000 -1.000000 0.000000
vn 0.000000 -1.000000 0.000000
vn 0.000000 -1.000000 0.000000
vn 0.000000 -1.000000 0.000000
vn 0.000000 -1.000000 0.000000
vn 0.000000 -1.000000 0.000000
vn 0.000000 -1.000000 0.000000
vn 0.000000 -1.000000 0.000000
vn 0.000000 -1.000000 0.000000
vn 0.000000 -1.000000 0.000000
vn 0.000000 -1.000000 0.000000
vn 0.000000 -1.000000 0.000000
vn 0.000000 -1.000000 0.000000
vn 0.000000 -1.000000 0.000000
vn 0.000000 -1.000000 0.000000
vn 0.000000 -1.000000 0.000000
vn 0.000000 -1.000000 0.000000
vn 0.000000 1.000000 0.000000
vn 0.000000 1.000000 0.000000
vn 0.000000 1.000000 0.000000
vn 0.000000 1.000000 0.000000
vn 0.000000 1.000000 0.000000
vn 0.000000 1.000000 0.000000
vn 0.000000 1.000000 0.000000
vn 0.000000 1.000000 0.000000
vn 0.000000 1.000000 0.000000
vn 0.000000 1.000000 0.000000
vn 0.000000 1.000000 0.000000
vn 0.000000 1.000000 0.000000
vn 0.000000 1.000000 0.000000
vn 0.000000 1.000000 0.000000
vn 0.000000 1.000000 0.000000
vn 0.000000 1.000000 0.000000
vn 0.000000 1.000000 0.000000
vn 0.000000 1.000000 0.000000
vn 0.000000 1.000000 0.000000
vn 0.000000 1.000000 0.000000
vn 0.000000 1.000000 0.000000
vn 0.000000 1.000000 0.000000
vn 0.000000 1.000000 0.000000
vn 0.000000 1.000000 0.000000
vn 0.000000 1.000000 0.000000
vn 0.000000 1.000000 0.000000
vn 0.000000 1.000000 0.000000
vn 0.000000 1.000000 0.000000
vn 0.000000 1.000000 0.000000
vn 0.000000 1.000000 0.000000
vn 0.000000 1.000000 0.000000
vn 0.000000 1.000000 0.000000
vn 0.000000 1.000000 0.000000
vn 0.000000 1.000000 0.000000
vn 0.000000 1.000000 0.000000
vn 0.000000 1.000000 0.000000
vn 0.000000 1.000000 0.000000
vn 0.000000 1.000000 0.000000
vn 0.000000 1.000000 0.000000
vn 0.000000 1.000000 0.000000
vn 0.000000 1.000000 0.000000
vn 0.000000 1.000000 0.000000
vn 0.000000 1.000000 0.000000
vn 0.000000 1.000000 0.000000
vn 0.000000 1.000000 0.000000
s 1
g pasted__pCylinder3 group1
usemtl surfaceShader1SG
f 1/45/1 2/46/2 46/91/3 45/90/4
f 2/46/2 3/47/5 47/92/6 46/91/3
f 3/47/5 4/48/7 48/93/8 47/92/6
f 4/48/7 5/49/9 49/94/10 48/93/8
f 5/49/9 6/50/11 50/95/12 49/94/10
f 6/50/11 7/51/13 51/96/14 50/95/12
f 7/51/13 8/52/15 52/97/16 51/96/14
f 8/52/15 9/53/17 53/98/18 52/97/16
f 9/53/17 10/54/19 54/99/20 53/98/18
f 10/54/19 11/55/21 55/100/22 54/99/20
f 11/55/21 12/56/23 56/101/24 55/100/22
f 12/56/23 13/57/25 57/102/26 56/101/24
f 13/57/25 14/58/27 58/103/28 57/102/26
f 14/58/27 15/59/29 59/104/30 58/103/28
f 15/59/29 16/60/31 60/105/32 59/104/30
f 16/60/31 17/61/33 61/106/34 60/105/32
f 17/61/33 18/62/35 62/107/36 61/106/34
f 18/62/35 19/63/37 63/108/38 62/107/36
f 19/63/37 20/64/39 64/109/40 63/108/38
f 20/64/39 21/65/41 65/110/42 64/109/40
f 21/65/41 22/66/43 66/111/44 65/110/42
f 22/66/43 23/67/45 67/112/46 66/111/44
f 23/67/45 24/68/47 68/113/48 67/112/46
f 24/68/47 25/69/49 69/114/50 68/113/48
f 25/69/49 26/70/51 70/115/52 69/114/50
f 26/70/51 27/71/53 71/116/54 70/115/52
f 27/71/53 28/72/55 72/117/56 71/116/54
f 28/72/55 29/73/57 73/118/58 72/117/56
f 29/73/57 30/74/59 74/119/60 73/118/58
f 30/74/59 31/75/61 75/120/62 74/119/60
f 31/75/61 32/76/63 76/121/64 75/120/62
f 32/76/63 33/77/65 77/122/66 76/121/64
f 33/77/65 34/78/67 78/123/68 77/122/66
f 34/78/67 35/79/69 79/124/70 78/123/68
f 35/79/69 36/80/71 80/125/72 79/124/70
f 36/80/71 37/81/73 81/126/74 80/125/72
f 37/81/73 38/82/75 82/127/76 81/126/74
f 38/82/75 39/83/77 83/128/78 82/127/76
f 39/83/77 40/84/79 84/129/80 83/128/78
f 40/84/79 41/85/81 85/130/82 84/129/80
f 41/85/81 42/86/83 86/131/84 85/130/82
f 42/86/83 43/87/85 87/132/86 86/131/84
f 43/87/85 44/88/87 88/133/88 87/132/86
f 44/88/87 1/89/1 45/134/4 88/133/88
s 2
f 2/2/89 1/1/90 89/179/91
f 3/3/92 2/2/89 89/179/91
f 4/4/93 3/3/92 89/179/91
f 5/5/94 4/4/93 89/179/91
f 6/6/95 5/5/94 89/179/91
f 7/7/96 6/6/95 89/179/91
f 8/8/97 7/7/96 89/179/91
f 9/9/98 8/8/97 89/179/91
f 10/10/99 9/9/98 89/179/91
f 11/11/100 10/10/99 89/179/91
f 12/12/101 11/11/100 89/179/91
f 13/13/102 12/12/101 89/179/91
f 14/14/103 13/13/102 89/179/91
f 15/15/104 14/14/103 89/179/91
f 16/16/105 15/15/104 89/179/91
f 17/17/106 16/16/105 89/179/91
f 18/18/107 17/17/106 89/179/91
f 19/19/108 18/18/107 89/179/91
f 20/20/109 19/19/108 89/179/91
f 21/21/110 20/20/109 89/179/91
f 22/22/111 21/21/110 89/179/91
f 23/23/112 22/22/111 89/179/91
f 24/24/113 23/23/112 89/179/91
f 25/25/114 24/24/113 89/179/91
f 26/26/115 25/25/114 89/179/91
f 27/27/116 26/26/115 89/179/91
f 28/28/117 27/27/116 89/179/91
f 29/29/118 28/28/117 89/179/91
f 30/30/119 29/29/118 89/179/91
f 31/31/120 30/30/119 89/179/91
f 32/32/121 31/31/120 89/179/91
f 33/33/122 32/32/121 89/179/91
f 34/34/123 33/33/122 89/179/91
f 35/35/124 34/34/123 89/179/91
f 36/36/125 35/35/124 89/179/91
f 37/37/126 36/36/125 89/179/91
f 38/38/127 37/37/126 89/179/91
f 39/39/128 38/38/127 89/179/91
f 40/40/129 39/39/128 89/179/91
f 41/41/130 40/40/129 89/179/91
f 42/42/131 41/41/130 89/179/91
f 43/43/132 42/42/131 89/179/91
f 44/44/133 43/43/132 89/179/91
f 1/1/90 44/44/133 89/179/91
s 3
f 45/177/134 46/176/135 90/180/136
f 46/176/135 47/175/137 90/180/136
f 47/175/137 48/174/138 90/180/136
f 48/174/138 49/173/139 90/180/136
f 49/173/139 50/172/140 90/180/136
f 50/172/140 51/171/141 90/180/136
f 51/171/141 52/170/142 90/180/136
f 52/170/142 53/169/143 90/180/136
f 53/169/143 54/168/144 90/180/136
f 54/168/144 55/167/145 90/180/136
f 55/167/145 56/166/146 90/180/136
f 56/166/146 57/165/147 90/180/136
f 57/165/147 58/164/148 90/180/136
f 58/164/148 59/163/149 90/180/136
f 59/163/149 60/162/150 90/180/136
f 60/162/150 61/161/151 90/180/136
f 61/161/151 62/160/152 90/180/136
f 62/160/152 63/159/153 90/180/136
f 63/159/153 64/158/154 90/180/136
f 64/158/154 65/157/155 90/180/136
f 65/157/155 66/156/156 90/180/136
f 66/156/156 67/155/157 90/180/136
f 67/155/157 68/154/158 90/180/136
f 68/154/158 69/153/159 90/180/136
f 69/153/159 70/152/160 90/180/136
f 70/152/160 71/151/161 90/180/136
f 71/151/161 72/150/162 90/180/136
f 72/150/162 73/149/163 90/180/136
f 73/149/163 74/148/164 90/180/136
f 74/148/164 75/147/165 90/180/136
f 75/147/165 76/146/166 90/180/136
f 76/146/166 77/145/167 90/180/136
f 77/145/167 78/144/168 90/180/136
f 78/144/168 79/143/169 90/180/136
f 79/143/169 80/142/170 90/180/136
f 80/142/170 81/141/171 90/180/136
f 81/141/171 82/140/172 90/180/136
f 82/140/172 83/139/173 90/180/136
f 83/139/173 84/138/174 90/180/136
f 84/138/174 85/137/175 90/180/136
f 85/137/175 86/136/176 90/180/136
f 86/136/176 87/135/177 90/180/136
f 87/135/177 88/178/178 90/180/136
f 88/178/178 45/177/134 90/180/136
